<svg width="108" height="37" viewBox="0 0 108 37" fill="none" xmlns="http://www.w3.org/2000/svg">
<path d="M26.0682 15.4545C26.0682 18.5227 25.5142 21.1742 24.4062 23.4091C23.2983 25.6439 21.7784 27.3674 19.8466 28.5795C17.9148 29.7917 15.7083 30.3977 13.2273 30.3977C10.7462 30.3977 8.53977 29.7917 6.60795 28.5795C4.67614 27.3674 3.15625 25.6439 2.0483 23.4091C0.940341 21.1742 0.386364 18.5227 0.386364 15.4545C0.386364 12.3864 0.940341 9.73485 2.0483 7.5C3.15625 5.26515 4.67614 3.54167 6.60795 2.32955C8.53977 1.11742 10.7462 0.511363 13.2273 0.511363C15.7083 0.511363 17.9148 1.11742 19.8466 2.32955C21.7784 3.54167 23.2983 5.26515 24.4062 7.5C25.5142 9.73485 26.0682 12.3864 26.0682 15.4545ZM22.6591 15.4545C22.6591 12.9356 22.2377 10.8097 21.3949 9.0767C20.5616 7.34375 19.4299 6.0322 18 5.14205C16.5795 4.25189 14.9886 3.80682 13.2273 3.80682C11.4659 3.80682 9.87027 4.25189 8.44034 5.14205C7.01989 6.0322 5.88826 7.34375 5.04545 9.0767C4.21212 10.8097 3.79545 12.9356 3.79545 15.4545C3.79545 17.9735 4.21212 20.0994 5.04545 21.8324C5.88826 23.5653 7.01989 24.8769 8.44034 25.767C9.87027 26.6572 11.4659 27.1023 13.2273 27.1023C14.9886 27.1023 16.5795 26.6572 18 25.767C19.4299 24.8769 20.5616 23.5653 21.3949 21.8324C22.2377 20.0994 22.6591 17.9735 22.6591 15.4545ZM56.7074 26.6477L56.3097 36.875H52.6733V30H50.6278V26.6477H56.7074ZM31.9915 30V0.90909H35.3438V26.7614H50.3438V0.90909H53.696V30H31.9915ZM62.0305 30V0.90909H71.8601C74.1423 0.90909 76.0078 1.32102 77.4567 2.14489C78.915 2.95928 79.9946 4.0625 80.6953 5.45455C81.3961 6.84659 81.7464 8.39962 81.7464 10.1136C81.7464 11.8277 81.3961 13.3854 80.6953 14.7869C80.004 16.1884 78.934 17.3059 77.4851 18.1392C76.0362 18.9631 74.1802 19.375 71.9169 19.375H64.8714V16.25H71.8033C73.3658 16.25 74.6205 15.9801 75.5675 15.4403C76.5144 14.9006 77.201 14.1714 77.6271 13.2528C78.0627 12.3248 78.2805 11.2784 78.2805 10.1136C78.2805 8.94886 78.0627 7.9072 77.6271 6.98864C77.201 6.07008 76.5097 5.35038 75.5533 4.82955C74.5968 4.29924 73.3279 4.03409 71.7464 4.03409H65.5533V30H62.0305ZM87.4212 30V0.90909H97.5916C99.6181 0.90909 101.29 1.25947 102.606 1.96023C103.922 2.65151 104.902 3.58428 105.546 4.75852C106.19 5.92329 106.512 7.21591 106.512 8.63636C106.512 9.88636 106.29 10.9186 105.844 11.733C105.409 12.5473 104.831 13.1913 104.112 13.6648C103.401 14.1383 102.629 14.4886 101.796 14.7159V15C102.686 15.0568 103.581 15.3693 104.481 15.9375C105.38 16.5057 106.133 17.3201 106.739 18.3807C107.345 19.4413 107.648 20.7386 107.648 22.2727C107.648 23.7311 107.317 25.0426 106.654 26.2074C105.991 27.3722 104.945 28.2955 103.515 28.9773C102.085 29.6591 100.224 30 97.9325 30H87.4212ZM90.9439 26.875H97.9325C100.234 26.875 101.867 26.4299 102.833 25.5398C103.808 24.6402 104.296 23.5511 104.296 22.2727C104.296 21.2879 104.045 20.3788 103.543 19.5455C103.041 18.7027 102.326 18.0303 101.398 17.5284C100.47 17.017 99.3719 16.7614 98.103 16.7614H90.9439V26.875ZM90.9439 13.6932H97.478C98.5386 13.6932 99.495 13.4848 100.347 13.0682C101.209 12.6515 101.891 12.0644 102.393 11.3068C102.904 10.5492 103.16 9.65909 103.16 8.63636C103.16 7.35795 102.715 6.27367 101.825 5.38352C100.934 4.4839 99.5234 4.03409 97.5916 4.03409H90.9439V13.6932Z" fill="white"/>
</svg>
